<svg width="499" height="402" viewBox="0 0 499 402" fill="none" xmlns="http://www.w3.org/2000/svg">
<path d="M31.8688 291.434H31.8649C31.5844 291.436 31.3042 291.414 31.0273 291.369L31.0174 291.367C29.6052 291.164 28.3135 290.458 27.3792 289.38C26.445 288.302 25.9307 286.923 25.9307 285.496L25.9307 29.7723L25.9307 29.7721C25.9304 28.9926 26.0837 28.2206 26.3817 27.5003C26.6798 26.78 27.1169 26.1255 27.6679 25.5741C28.2189 25.0227 28.8731 24.5853 29.5932 24.2867C30.3133 23.9882 31.085 23.8344 31.8645 23.8341C31.8646 23.8341 31.8646 23.8341 31.8647 23.8341L465.976 23.8341C466.755 23.8338 467.527 23.9871 468.248 24.2852C468.968 24.5833 469.622 25.0203 470.174 25.5713C470.725 26.1224 471.163 26.7766 471.461 27.4967C471.76 28.2168 471.914 28.9886 471.914 29.7682V29.7723V285.496C471.914 286.276 471.761 287.047 471.463 287.768C471.165 288.488 470.728 289.143 470.177 289.694C469.626 290.245 468.971 290.683 468.251 290.981C467.531 291.28 466.759 291.434 465.98 291.434H31.8688Z" fill="#E6E6E6" stroke="#E67E23"/>
<path d="M134.857 175.382C166.052 175.382 191.34 150.094 191.34 118.899C191.34 87.7047 166.052 62.4164 134.857 62.4164C103.662 62.4164 78.374 87.7047 78.374 118.899C78.374 150.094 103.662 175.382 134.857 175.382Z" fill="#FFC163"/>
<path d="M311.982 292.959H34.8929C34.5459 292.964 34.1993 292.936 33.8574 292.877L164.908 65.8794C165.707 64.4657 166.868 63.2896 168.271 62.4714C169.674 61.6531 171.27 61.2219 172.894 61.2219C174.518 61.2219 176.113 61.6531 177.516 62.4714C178.92 63.2896 180.08 64.4657 180.88 65.8794L268.831 218.213L273.045 225.502L311.982 292.959Z" fill="#E67E23"/>
<path opacity="0.2" d="M311.981 292.959H217.377L263.818 225.502L267.161 220.643L268.832 218.212L273.045 225.502L311.981 292.959Z" fill="black"/>
<path d="M466.262 292.959H226.604L273.045 225.502L276.387 220.642L336.904 132.732C340.871 126.971 350.416 126.612 355.08 131.645C355.394 131.989 355.685 132.352 355.952 132.732L466.262 292.959Z" fill="#E67E23"/>
<path d="M496.837 13.622C495.398 9.63677 492.766 6.19143 489.3 3.75426C485.834 1.31708 481.701 0.00628165 477.464 1.54815e-06H20.9759C18.2724 -0.00104712 15.5953 0.530671 13.0974 1.56476C10.5995 2.59885 8.32992 4.11503 6.41828 6.02667C4.50663 7.93832 2.99045 10.2079 1.95636 12.7058C0.922273 15.2037 0.390554 17.8809 0.391603 20.5843V381.416C0.399325 386.873 2.5705 392.104 6.42914 395.962C10.2878 399.821 15.519 401.992 20.9759 402H477.464C482.921 401.992 488.152 399.821 492.011 395.962C495.869 392.104 498.041 386.873 498.048 381.416V20.5843C498.052 18.2108 497.642 15.8548 496.837 13.622ZM495.627 381.416C495.621 386.231 493.705 390.847 490.3 394.252C486.895 397.657 482.279 399.572 477.464 399.578H20.9759C16.1607 399.572 11.5444 397.657 8.13947 394.252C4.73458 390.847 2.81915 386.231 2.81329 381.416V20.5843C2.81915 15.7691 4.73458 11.1528 8.13947 7.74788C11.5444 4.34299 16.1607 2.42755 20.9759 2.42169H477.464C482.279 2.42755 486.895 4.34299 490.3 7.74788C493.705 11.1528 495.621 15.7691 495.627 20.5843V381.416Z" fill="#E67E23"/>
</svg>
